<svg width="1920" height="1080" viewBox="0 0 1920 1080" fill="none" xmlns="http://www.w3.org/2000/svg">
<g id="Slide1" clip-path="url(#clip0_30_2)">
<g id="Group 4">
<g id="star">
<g id="Group">
<path id="Vector" opacity="0.5" d="M1170.3 951.1C1174.44 951.1 1177.8 947.742 1177.8 943.6C1177.8 939.458 1174.44 936.1 1170.3 936.1C1166.16 936.1 1162.8 939.458 1162.8 943.6C1162.8 947.742 1166.16 951.1 1170.3 951.1Z" fill="url(#paint0_radial_30_2)"/>
<path id="Vector_2" opacity="0.5" d="M1170.3 958.6C1178.58 958.6 1185.3 951.884 1185.3 943.6C1185.3 935.316 1178.58 928.6 1170.3 928.6C1162.02 928.6 1155.3 935.316 1155.3 943.6C1155.3 951.884 1162.02 958.6 1170.3 958.6Z" fill="url(#paint1_radial_30_2)"/>
<path id="Vector_3" opacity="0.5" d="M1170.3 953.6C1175.82 953.6 1180.3 949.123 1180.3 943.6C1180.3 938.077 1175.82 933.6 1170.3 933.6C1164.78 933.6 1160.3 938.077 1160.3 943.6C1160.3 949.123 1164.78 953.6 1170.3 953.6Z" fill="url(#paint2_radial_30_2)"/>
</g>
<path id="Vector_4" d="M1170 955.3L1168.5 945.3L1158.7 943.3L1168.6 941.8L1170.6 932L1172.1 941.9L1181.9 943.9L1172 945.4L1170 955.3Z" fill="white"/>
</g>
<g id="star_2">
<g id="Group_2">
<path id="Vector_5" opacity="0.5" d="M378.8 352.8C382.942 352.8 386.3 349.442 386.3 345.3C386.3 341.158 382.942 337.8 378.8 337.8C374.658 337.8 371.3 341.158 371.3 345.3C371.3 349.442 374.658 352.8 378.8 352.8Z" fill="url(#paint3_radial_30_2)"/>
<path id="Vector_6" opacity="0.5" d="M378.8 360.3C387.084 360.3 393.8 353.584 393.8 345.3C393.8 337.016 387.084 330.3 378.8 330.3C370.516 330.3 363.8 337.016 363.8 345.3C363.8 353.584 370.516 360.3 378.8 360.3Z" fill="url(#paint4_radial_30_2)"/>
<path id="Vector_7" opacity="0.5" d="M378.8 355.3C384.323 355.3 388.8 350.823 388.8 345.3C388.8 339.777 384.323 335.3 378.8 335.3C373.277 335.3 368.8 339.777 368.8 345.3C368.8 350.823 373.277 355.3 378.8 355.3Z" fill="url(#paint5_radial_30_2)"/>
</g>
<path id="Vector_8" d="M378.45 356.95L376.95 347.05L367.15 345.05L377.05 343.55L379.05 333.65L380.55 343.65L390.45 345.65L380.45 347.15L378.45 356.95Z" fill="white"/>
</g>
<g id="star_3">
<g id="Group_3">
<path id="Vector_9" opacity="0.5" d="M1677 562.5C1681.14 562.5 1684.5 559.142 1684.5 555C1684.5 550.858 1681.14 547.5 1677 547.5C1672.86 547.5 1669.5 550.858 1669.5 555C1669.5 559.142 1672.86 562.5 1677 562.5Z" fill="url(#paint6_radial_30_2)"/>
<path id="Vector_10" opacity="0.5" d="M1677 570C1685.28 570 1692 563.284 1692 555C1692 546.716 1685.28 540 1677 540C1668.72 540 1662 546.716 1662 555C1662 563.284 1668.72 570 1677 570Z" fill="url(#paint7_radial_30_2)"/>
<path id="Vector_11" opacity="0.5" d="M1677 565C1682.52 565 1687 560.523 1687 555C1687 549.477 1682.52 545 1677 545C1671.48 545 1667 549.477 1667 555C1667 560.523 1671.48 565 1677 565Z" fill="url(#paint8_radial_30_2)"/>
</g>
<path id="Vector_12" d="M1676.7 566.6L1675.2 556.7L1665.4 554.7L1675.3 553.2L1677.3 543.4L1678.8 553.3L1688.6 555.3L1678.7 556.8L1676.7 566.6Z" fill="white"/>
</g>
<g id="star_4">
<g id="Group_4">
<path id="Vector_13" opacity="0.5" d="M1774.1 341.1C1778.24 341.1 1781.6 337.742 1781.6 333.6C1781.6 329.458 1778.24 326.1 1774.1 326.1C1769.96 326.1 1766.6 329.458 1766.6 333.6C1766.6 337.742 1769.96 341.1 1774.1 341.1Z" fill="url(#paint9_radial_30_2)"/>
<path id="Vector_14" opacity="0.5" d="M1774.1 348.6C1782.38 348.6 1789.1 341.884 1789.1 333.6C1789.1 325.316 1782.38 318.6 1774.1 318.6C1765.82 318.6 1759.1 325.316 1759.1 333.6C1759.1 341.884 1765.82 348.6 1774.1 348.6Z" fill="url(#paint10_radial_30_2)"/>
<path id="Vector_15" opacity="0.5" d="M1774.1 343.6C1779.62 343.6 1784.1 339.123 1784.1 333.6C1784.1 328.077 1779.62 323.6 1774.1 323.6C1768.58 323.6 1764.1 328.077 1764.1 333.6C1764.1 339.123 1768.58 343.6 1774.1 343.6Z" fill="url(#paint11_radial_30_2)"/>
</g>
<path id="Vector_16" d="M1773.9 345.3L1772.3 335.3L1762.5 333.4L1772.4 331.8L1774.4 322L1775.9 331.9L1785.8 333.9L1775.9 335.4L1773.9 345.3Z" fill="white"/>
</g>
<g id="star_5">
<g id="Group_5">
<path id="Vector_17" opacity="0.5" d="M1257.3 90.2001C1261.44 90.2001 1264.8 86.8422 1264.8 82.7001C1264.8 78.5579 1261.44 75.2001 1257.3 75.2001C1253.16 75.2001 1249.8 78.5579 1249.8 82.7001C1249.8 86.8422 1253.16 90.2001 1257.3 90.2001Z" fill="url(#paint12_radial_30_2)"/>
<path id="Vector_18" opacity="0.5" d="M1257.3 97.7001C1265.58 97.7001 1272.3 90.9843 1272.3 82.7001C1272.3 74.4158 1265.58 67.7001 1257.3 67.7001C1249.02 67.7001 1242.3 74.4158 1242.3 82.7001C1242.3 90.9843 1249.02 97.7001 1257.3 97.7001Z" fill="url(#paint13_radial_30_2)"/>
<path id="Vector_19" opacity="0.5" d="M1257.3 92.7001C1262.82 92.7001 1267.3 88.2229 1267.3 82.7001C1267.3 77.1772 1262.82 72.7001 1257.3 72.7001C1251.78 72.7001 1247.3 77.1772 1247.3 82.7001C1247.3 88.2229 1251.78 92.7001 1257.3 92.7001Z" fill="url(#paint14_radial_30_2)"/>
</g>
<path id="Vector_20" d="M1257 94.4001L1255.5 84.4001L1245.7 82.4001L1255.6 80.9001L1257.6 71.1001L1259.1 81.0001L1268.9 83.0001L1259 84.5001L1257 94.4001Z" fill="white"/>
</g>
<g id="star_6">
<path id="Vector_21" opacity="0.5" d="M681.4 897.1C686.923 897.1 691.4 892.623 691.4 887.1C691.4 881.577 686.923 877.1 681.4 877.1C675.877 877.1 671.4 881.577 671.4 887.1C671.4 892.623 675.877 897.1 681.4 897.1Z" fill="url(#paint15_radial_30_2)"/>
<path id="Vector_22" opacity="0.5" d="M681.4 893.7C685.045 893.7 688 890.745 688 887.1C688 883.455 685.045 880.5 681.4 880.5C677.755 880.5 674.8 883.455 674.8 887.1C674.8 890.745 677.755 893.7 681.4 893.7Z" fill="url(#paint16_radial_30_2)"/>
<path id="Vector_23" d="M681.4 890.4C683.223 890.4 684.7 888.923 684.7 887.1C684.7 885.277 683.223 883.8 681.4 883.8C679.577 883.8 678.1 885.277 678.1 887.1C678.1 888.923 679.577 890.4 681.4 890.4Z" fill="white"/>
<path id="Vector_24" opacity="0.5" d="M681.4 892.1C684.161 892.1 686.4 889.861 686.4 887.1C686.4 884.339 684.161 882.1 681.4 882.1C678.639 882.1 676.4 884.339 676.4 887.1C676.4 889.861 678.639 892.1 681.4 892.1Z" fill="url(#paint17_radial_30_2)"/>
</g>
<g id="star_7">
<path id="Vector_25" opacity="0.5" d="M174.5 820.4C180.023 820.4 184.5 815.923 184.5 810.4C184.5 804.877 180.023 800.4 174.5 800.4C168.977 800.4 164.5 804.877 164.5 810.4C164.5 815.923 168.977 820.4 174.5 820.4Z" fill="url(#paint18_radial_30_2)"/>
<path id="Vector_26" opacity="0.5" d="M174.5 817C178.145 817 181.1 814.045 181.1 810.4C181.1 806.755 178.145 803.8 174.5 803.8C170.855 803.8 167.9 806.755 167.9 810.4C167.9 814.045 170.855 817 174.5 817Z" fill="url(#paint19_radial_30_2)"/>
<path id="Vector_27" d="M174.5 813.7C176.323 813.7 177.8 812.223 177.8 810.4C177.8 808.577 176.323 807.1 174.5 807.1C172.677 807.1 171.2 808.577 171.2 810.4C171.2 812.223 172.677 813.7 174.5 813.7Z" fill="white"/>
<path id="Vector_28" opacity="0.5" d="M174.5 815.4C177.261 815.4 179.5 813.161 179.5 810.4C179.5 807.639 177.261 805.4 174.5 805.4C171.739 805.4 169.5 807.639 169.5 810.4C169.5 813.161 171.739 815.4 174.5 815.4Z" fill="url(#paint20_radial_30_2)"/>
</g>
<g id="star_8">
<path id="Vector_29" opacity="0.5" d="M240.5 417.1C246.023 417.1 250.5 412.623 250.5 407.1C250.5 401.577 246.023 397.1 240.5 397.1C234.977 397.1 230.5 401.577 230.5 407.1C230.5 412.623 234.977 417.1 240.5 417.1Z" fill="url(#paint21_radial_30_2)"/>
<path id="Vector_30" opacity="0.5" d="M240.5 413.7C244.145 413.7 247.1 410.745 247.1 407.1C247.1 403.455 244.145 400.5 240.5 400.5C236.855 400.5 233.9 403.455 233.9 407.1C233.9 410.745 236.855 413.7 240.5 413.7Z" fill="url(#paint22_radial_30_2)"/>
<path id="Vector_31" d="M240.5 410.4C242.322 410.4 243.8 408.922 243.8 407.1C243.8 405.277 242.322 403.8 240.5 403.8C238.677 403.8 237.2 405.277 237.2 407.1C237.2 408.922 238.677 410.4 240.5 410.4Z" fill="white"/>
<path id="Vector_32" opacity="0.5" d="M240.5 412.1C243.261 412.1 245.5 409.861 245.5 407.1C245.5 404.339 243.261 402.1 240.5 402.1C237.739 402.1 235.5 404.339 235.5 407.1C235.5 409.861 237.739 412.1 240.5 412.1Z" fill="url(#paint23_radial_30_2)"/>
</g>
<g id="star_9">
<path id="Vector_33" opacity="0.5" d="M596.7 298.4C606.475 298.4 614.4 290.475 614.4 280.7C614.4 270.925 606.475 263 596.7 263C586.925 263 579 270.925 579 280.7C579 290.475 586.925 298.4 596.7 298.4Z" fill="url(#paint24_radial_30_2)"/>
<path id="Vector_34" opacity="0.5" d="M596.7 292.5C603.217 292.5 608.5 287.217 608.5 280.7C608.5 274.183 603.217 268.9 596.7 268.9C590.183 268.9 584.9 274.183 584.9 280.7C584.9 287.217 590.183 292.5 596.7 292.5Z" fill="url(#paint25_radial_30_2)"/>
<path id="Vector_35" d="M596.7 286.6C599.958 286.6 602.6 283.959 602.6 280.7C602.6 277.442 599.958 274.8 596.7 274.8C593.442 274.8 590.8 277.442 590.8 280.7C590.8 283.959 593.442 286.6 596.7 286.6Z" fill="white"/>
<path id="Vector_36" opacity="0.5" d="M596.7 289.5C601.56 289.5 605.5 285.56 605.5 280.7C605.5 275.84 601.56 271.9 596.7 271.9C591.84 271.9 587.9 275.84 587.9 280.7C587.9 285.56 591.84 289.5 596.7 289.5Z" fill="url(#paint26_radial_30_2)"/>
</g>
<g id="star_10">
<path id="Vector_37" opacity="0.5" d="M1414.2 206.4C1423.98 206.4 1431.9 198.475 1431.9 188.7C1431.9 178.925 1423.98 171 1414.2 171C1404.42 171 1396.5 178.925 1396.5 188.7C1396.5 198.475 1404.42 206.4 1414.2 206.4Z" fill="url(#paint27_radial_30_2)"/>
<path id="Vector_38" opacity="0.5" d="M1414.2 200.5C1420.72 200.5 1426 195.217 1426 188.7C1426 182.183 1420.72 176.9 1414.2 176.9C1407.68 176.9 1402.4 182.183 1402.4 188.7C1402.4 195.217 1407.68 200.5 1414.2 200.5Z" fill="url(#paint28_radial_30_2)"/>
<path id="Vector_39" d="M1414.2 194.6C1417.46 194.6 1420.1 191.959 1420.1 188.7C1420.1 185.442 1417.46 182.8 1414.2 182.8C1410.94 182.8 1408.3 185.442 1408.3 188.7C1408.3 191.959 1410.94 194.6 1414.2 194.6Z" fill="white"/>
<path id="Vector_40" opacity="0.5" d="M1414.2 197.5C1419.06 197.5 1423 193.56 1423 188.7C1423 183.84 1419.06 179.9 1414.2 179.9C1409.34 179.9 1405.4 183.84 1405.4 188.7C1405.4 193.56 1409.34 197.5 1414.2 197.5Z" fill="url(#paint29_radial_30_2)"/>
</g>
<g id="star_11">
<path id="Vector_41" opacity="0.5" d="M1579 975.1C1588.78 975.1 1596.7 967.175 1596.7 957.4C1596.7 947.625 1588.78 939.7 1579 939.7C1569.22 939.7 1561.3 947.625 1561.3 957.4C1561.3 967.175 1569.22 975.1 1579 975.1Z" fill="url(#paint30_radial_30_2)"/>
<path id="Vector_42" opacity="0.5" d="M1579 969.2C1585.52 969.2 1590.8 963.917 1590.8 957.4C1590.8 950.883 1585.52 945.6 1579 945.6C1572.48 945.6 1567.2 950.883 1567.2 957.4C1567.2 963.917 1572.48 969.2 1579 969.2Z" fill="url(#paint31_radial_30_2)"/>
<path id="Vector_43" d="M1579 963.3C1582.26 963.3 1584.9 960.658 1584.9 957.4C1584.9 954.141 1582.26 951.5 1579 951.5C1575.74 951.5 1573.1 954.141 1573.1 957.4C1573.1 960.658 1575.74 963.3 1579 963.3Z" fill="white"/>
<path id="Vector_44" opacity="0.5" d="M1579 966.2C1583.86 966.2 1587.8 962.26 1587.8 957.4C1587.8 952.54 1583.86 948.6 1579 948.6C1574.14 948.6 1570.2 952.54 1570.2 957.4C1570.2 962.26 1574.14 966.2 1579 966.2Z" fill="url(#paint32_radial_30_2)"/>
</g>
<g id="star_12">
<path id="Vector_45" opacity="0.5" d="M119.1 340.2C124.623 340.2 129.1 335.723 129.1 330.2C129.1 324.677 124.623 320.2 119.1 320.2C113.577 320.2 109.1 324.677 109.1 330.2C109.1 335.723 113.577 340.2 119.1 340.2Z" fill="url(#paint33_radial_30_2)"/>
<path id="Vector_46" opacity="0.5" d="M119.1 336.8C122.745 336.8 125.7 333.845 125.7 330.2C125.7 326.555 122.745 323.6 119.1 323.6C115.455 323.6 112.5 326.555 112.5 330.2C112.5 333.845 115.455 336.8 119.1 336.8Z" fill="url(#paint34_radial_30_2)"/>
<path id="Vector_47" d="M119.1 333.5C120.923 333.5 122.4 332.022 122.4 330.2C122.4 328.377 120.923 326.9 119.1 326.9C117.277 326.9 115.8 328.377 115.8 330.2C115.8 332.022 117.277 333.5 119.1 333.5Z" fill="white"/>
<path id="Vector_48" opacity="0.5" d="M119.1 335.2C121.861 335.2 124.1 332.961 124.1 330.2C124.1 327.439 121.861 325.2 119.1 325.2C116.339 325.2 114.1 327.439 114.1 330.2C114.1 332.961 116.339 335.2 119.1 335.2Z" fill="url(#paint35_radial_30_2)"/>
</g>
</g>
<g id="Group 6">
<g id="Group 5">
<g id="Frame 15" clip-path="url(#clip1_30_2)">
<path id="flag" d="M954.006 162.048V269.57C1005.06 269.57 1039.01 256.504 1090.38 256.504C1141.75 256.504 1187.6 269.57 1226.82 269.57C1277.87 269.57 1311.83 256.504 1363.19 256.504C1414.56 256.504 1460.42 269.57 1499.64 269.57V162.048C1457.82 162.048 1413.48 148.982 1363.19 148.982C1312.91 148.982 1268.79 162.048 1226.82 162.048C1185 162.048 1140.66 148.982 1090.38 148.982C1040.09 148.982 995.972 162.048 954.006 162.048Z" fill="#FFD500"/>
</g>
<g id="Group 12">
<path id="Vector_49" d="M1169.9 224.673L1172.31 213.6H981.975L979.729 224.673H1169.9Z" fill="white"/>
<path id="Vector_50" d="M1192.85 198.514C1192.85 198.514 1195.41 186.799 1195.41 186.639H1179.21L1175.84 202.205H1180.01L1182.58 190.49H1190.44C1190.44 190.49 1188.03 202.205 1187.87 202.205H1199.91L1198.3 209.427H1186.43L1184.02 220.5H1175.03L1174.23 224.512H1187.55L1189.96 213.439H1201.83C1201.83 213.439 1205.04 198.514 1205.04 198.354H1192.85V198.514Z" fill="#E30613"/>
<path id="Vector_51" d="M993.369 204.773L995.135 196.749H997.381C999.789 196.749 1000.91 197.712 1000.91 199.959C1000.91 202.847 998.986 204.773 995.616 204.773H993.369ZM992.567 209.267H994.814C1002.2 209.267 1006.21 205.736 1006.21 199.638C1006.21 195.144 1003 192.256 997.542 192.256H990.802L985.666 216.809H990.962L992.567 209.267ZM1014.55 213.118C1012.47 213.118 1010.86 211.513 1011.66 207.662C1012.47 203.971 1014.23 202.205 1016.32 202.205C1018.4 202.205 1020.01 203.81 1019.21 207.662C1018.4 211.353 1016.64 213.118 1014.55 213.118ZM1014.07 217.291C1019.85 217.291 1023.7 213.118 1024.5 207.662C1025.47 202.205 1022.42 198.033 1016.64 198.033C1010.86 198.033 1007.01 202.205 1006.21 207.662C1005.24 213.118 1008.29 217.291 1014.07 217.291ZM1033.65 211.353C1033.65 212.797 1031.88 213.118 1030.44 213.118C1028.51 213.118 1026.43 212.637 1025.31 212.316L1024.5 216.328C1026.11 216.649 1028.19 217.13 1030.12 217.13C1034.77 217.13 1038.62 215.365 1038.62 211.032C1038.62 205.415 1031.88 206.378 1031.88 203.81C1031.88 202.687 1033.01 202.205 1034.61 202.205C1036.22 202.205 1038.62 202.847 1039.27 203.008L1040.07 198.835C1038.46 198.354 1036.7 198.193 1034.93 198.193C1029.8 198.193 1026.75 200.44 1026.75 204.131C1026.91 209.748 1033.65 208.946 1033.65 211.353ZM1053.39 202.526L1054.19 198.514H1048.57L1049.7 193.539L1044.24 194.823L1040.87 210.229C1039.91 214.562 1042.32 216.97 1046.65 216.97C1047.61 216.97 1049.06 216.809 1050.18 216.488L1050.98 212.476C1050.18 212.637 1049.06 212.958 1048.09 212.958C1046.65 212.958 1045.53 212.476 1045.85 210.55L1047.61 202.526H1053.39V202.526ZM1058.52 216.649L1060.61 207.18H1068.47L1069.44 202.526H1061.57L1062.86 196.749H1071.2L1072.17 192.095H1058.52L1053.39 216.649H1058.52ZM1073.29 198.675L1069.44 216.809H1074.57L1078.42 198.675H1073.29ZM1073.93 193.7C1073.77 195.305 1075.05 196.589 1076.66 196.589C1078.42 196.589 1079.71 195.305 1079.87 193.7C1080.03 192.095 1078.75 190.811 1077.14 190.811C1075.38 190.651 1074.09 191.935 1073.93 193.7ZM1083.24 216.649L1085.16 207.501C1085.97 203.81 1087.73 202.526 1089.66 202.526C1092.07 202.526 1092.39 204.292 1091.9 206.378L1089.66 216.649H1094.79L1097.04 206.057C1098.16 200.761 1095.76 198.033 1091.9 198.033C1089.82 198.033 1087.73 198.835 1085.97 200.761L1086.45 198.675H1081.63L1077.78 216.809H1083.24V216.649ZM1108.59 198.193C1106.19 198.193 1103.78 198.675 1102.98 198.996L1102.01 203.168C1103.14 202.847 1105.55 202.205 1107.47 202.205C1110.2 202.205 1111.16 203.008 1111.16 204.452C1111.16 204.773 1111.16 204.934 1111.16 205.255V205.575C1109.88 205.415 1108.59 205.255 1107.95 205.255C1102.82 205.255 1098.64 207.18 1098.64 211.995C1098.64 215.044 1101.05 216.97 1104.26 216.97C1106.51 216.97 1108.43 216.167 1109.56 214.562L1109.24 216.488H1113.89L1116.14 206.217C1116.3 205.415 1116.46 204.613 1116.46 203.81C1116.3 200.922 1114.53 198.193 1108.59 198.193ZM1103.46 211.513C1103.46 209.748 1105.06 208.625 1107.79 208.625C1108.27 208.625 1109.4 208.625 1110.52 208.785L1110.36 209.748C1109.72 211.834 1107.95 213.279 1105.87 213.279C1104.26 213.439 1103.46 212.797 1103.46 211.513ZM1122.24 216.649L1124.16 207.501C1124.96 203.81 1126.73 202.526 1128.65 202.526C1131.06 202.526 1131.38 204.292 1130.9 206.378L1128.65 216.649H1133.79L1136.04 206.057C1137.16 200.761 1134.75 198.033 1130.9 198.033C1128.82 198.033 1126.73 198.835 1124.96 200.761L1125.45 198.675H1120.63L1116.78 216.809H1122.24V216.649ZM1147.43 212.797C1145.02 212.797 1143.42 211.834 1143.42 208.785C1143.42 205.255 1145.67 202.366 1149.04 202.366C1150.16 202.366 1151.44 202.687 1152.57 203.168L1153.37 198.996C1151.92 198.514 1150.32 198.193 1148.55 198.193C1142.78 198.193 1137.96 202.526 1137.96 208.946C1137.96 214.402 1141.33 216.809 1145.99 216.809C1147.59 216.809 1148.88 216.488 1150 216.167L1150.96 211.834C1150 212.476 1148.88 212.797 1147.43 212.797ZM1167.17 216.488L1168.13 212.155C1166.53 212.637 1164.92 213.118 1163 213.118C1160.59 213.118 1158.66 212.316 1158.5 209.588H1170.54C1171.02 208.143 1171.18 206.699 1171.18 205.415C1171.18 201.403 1168.77 198.193 1163.8 198.193C1157.38 198.193 1153.37 203.489 1153.37 209.427C1153.37 214.402 1156.74 217.451 1161.87 217.451C1164.12 217.291 1165.89 216.97 1167.17 216.488ZM1163.48 202.045C1165.24 202.045 1166.37 203.168 1166.37 205.094C1166.37 205.415 1166.37 205.736 1166.37 206.057H1158.99C1159.63 203.65 1161.39 202.045 1163.48 202.045Z" fill="black"/>
</g>
</g>
<path id="Rectangle 1" d="M943.139 155.036C943.139 151.934 945.654 149.419 948.756 149.419V149.419C951.858 149.419 954.373 151.934 954.373 155.036V370.883H943.139V155.036Z" fill="#301948"/>
</g>
<g id="Motiv">
<g id="Group_6">
<path id="Vector_52" d="M955.686 939C1126.89 939 1265.69 800.208 1265.69 629C1265.69 457.792 1126.89 319 955.686 319C784.478 319 645.686 457.792 645.686 629C645.686 800.208 784.478 939 955.686 939Z" fill="url(#paint36_linear_30_2)"/>
<path id="Vector_53" opacity="0.5" d="M752.113 459.583C740.851 474.433 732.931 488.169 727.61 498.936" stroke="white" stroke-width="20" stroke-miterlimit="10" stroke-linecap="round"/>
<path id="Vector_54" opacity="0.5" d="M879.454 372.461C857.921 378.772 819.434 393.004 782.68 426.417" stroke="white" stroke-width="20" stroke-miterlimit="10" stroke-linecap="round"/>
</g>
<g id="Group_7">
<mask id="mask0_30_2" style="mask-type:alpha" maskUnits="userSpaceOnUse" x="645" y="319" width="621" height="620">
<path id="Vector_55" d="M955.686 939C1126.89 939 1265.69 800.208 1265.69 629C1265.69 457.792 1126.89 319 955.686 319C784.478 319 645.686 457.792 645.686 629C645.686 800.208 784.478 939 955.686 939Z" fill="#D9D9D9"/>
</mask>
<g mask="url(#mask0_30_2)">
<path id="Vector_56" d="M947.271 683.575C929.326 692.485 915.59 678.749 903.71 688.278C890.221 699.168 893.686 728.992 902.472 748.298C918.808 784.186 966.576 812.525 1000.24 797.922C1023.01 788.022 1030.31 762.282 1040.21 727.755C1049.37 695.579 1058.03 664.765 1040.21 645.088C1026.84 630.361 1000.48 624.05 983.53 633.208C962.492 644.593 969.422 672.561 947.271 683.575Z" fill="url(#paint37_linear_30_2)"/>
<path id="Vector_57" d="M1116.07 326.054C986.376 256.01 820.796 287.938 811.762 327.415C806.935 348.577 849.011 363.18 848.887 405.875C848.887 443.619 815.846 454.385 819.929 484.334C824.508 518.366 873.762 552.026 916.333 547.695C961.997 542.992 966.452 498.194 1014.1 490.892C1055.06 484.705 1072.14 514.529 1124.24 527.028C1156.41 534.701 1204.3 536.433 1270.14 506.362C1255.29 469.236 1212.97 378.401 1115.95 325.93L1116.07 326.054ZM1036.87 440.401C1023.87 451.168 1007.41 435.451 983.778 438.669C948.632 443.372 941.702 483.591 915.59 481.116C901.111 479.755 889.107 466.018 885.518 453.643C877.35 425.551 909.031 390.653 941.331 380.134C986.5 365.407 1042.44 395.232 1044.91 420.849C1045.53 427.655 1042.56 435.699 1036.99 440.278L1036.87 440.401Z" fill="url(#paint38_linear_30_2)"/>
<path id="Vector_58" d="M988.851 527.523C967.442 543.735 951.726 555.491 954.077 567.495C957.047 583.335 990.955 597.814 1015.58 585.192C1034.14 575.786 1044.29 552.521 1039.47 533.958C1038.97 531.978 1035.01 516.509 1023.13 512.796C1012.86 509.455 1002.71 516.88 988.728 527.523H988.851Z" fill="url(#paint39_linear_30_2)"/>
<path id="Vector_59" d="M1288.21 591.751C1149.61 608.086 1101.84 651.771 1084.39 689.515C1062.24 737.407 1087.61 777.998 1056.79 809.307C1008.28 858.561 892.943 810.297 887.374 807.946C875.494 802.872 774.512 757.579 759.291 671.571C751.247 625.659 773.893 604.002 757.929 566.876C741.47 528.513 699.147 509.455 664.496 499.307C602.62 645.335 642.344 811.411 756.568 902.864C904.081 1021.05 1128.2 976.373 1230.29 842.226C1305.91 742.976 1292.66 623.679 1288.08 591.627L1288.21 591.751ZM785.897 802.006C768.572 811.535 727.115 779.854 703.726 747.307C652.616 676.026 662.269 563.659 695.311 551.16C707.067 546.705 723.897 554.006 731.075 564.896C740.604 579.252 728.847 593.483 725.011 621.204C718.328 669.467 738.995 736.789 775.255 755.846C780.824 758.816 791.59 763.148 795.055 773.295C798.396 783.443 793.941 797.799 785.897 802.13V802.006ZM1183.64 770.325C1162.97 770.202 1149.85 753 1142.18 743.1C1136.36 735.551 1121.89 716.617 1125.97 691.619C1126.71 687.411 1129.93 670.828 1144.16 658.329C1168.42 637.044 1210.74 639.767 1217.92 654.246C1224.85 668.106 1195.89 685.431 1202.82 708.82C1207.65 725.156 1224.72 726.27 1225.09 739.14C1225.47 753.619 1204.43 770.573 1183.64 770.449V770.325Z" fill="url(#paint40_linear_30_2)"/>
<path id="Vector_60" d="M834.408 695.084C830.943 702.881 826.612 720.082 835.522 726.517C842.329 731.467 854.085 728.002 860.52 722.31C863.861 719.34 865.842 714.142 869.554 703.623C874.009 691.372 876.237 685.06 874.133 681.471C870.668 675.531 860.396 674.789 853.59 676.398C841.339 679.368 836.017 691.495 834.408 695.084Z" fill="url(#paint41_linear_30_2)"/>
</g>
</g>
</g>
<rect id="appear" y="499" width="1920" height="273" fill="url(#paint42_linear_30_2)"/>
<path id="appear_2" d="M724.978 607L720.614 572.727L716.341 607H704.159L697.159 534.273H708.887L711.432 588.091L715.796 552.455H724.978L729.614 587.091L732.069 534.273H743.796L736.796 607H724.978ZM753.109 607V534.273H794.291V544.818H767.109V562.545H790.837V573.182H767.109V596.455H794.291V607H753.109ZM809.787 607V534.273H823.696V596.455H847.605V607H809.787ZM881.555 607.909C874.343 607.909 868.888 605.788 865.191 601.545C861.494 597.303 859.646 591.03 859.646 582.727V558.909C859.646 550.424 861.494 544.061 865.191 539.818C868.888 535.515 874.343 533.364 881.555 533.364C888.585 533.364 893.767 535.394 897.1 539.455C900.494 543.515 902.373 549.97 902.737 558.818L888.827 559.727C888.585 553.424 887.949 549.212 886.918 547.091C885.888 544.97 884.04 543.909 881.373 543.909C878.403 543.909 876.343 545.061 875.191 547.364C874.1 549.667 873.555 553.788 873.555 559.727V582C873.555 587.455 874.1 591.394 875.191 593.818C876.343 596.182 878.403 597.364 881.373 597.364C884.04 597.364 885.888 596.333 886.918 594.273C887.949 592.152 888.585 588.03 888.827 581.909L902.737 582.818C902.433 591.485 900.585 597.848 897.191 601.909C893.797 605.909 888.585 607.909 881.555 607.909ZM933.414 607.909C926.808 607.909 921.717 605.758 918.141 601.455C914.626 597.152 912.868 591.182 912.868 583.545V558.091C912.868 550.333 914.656 544.273 918.232 539.909C921.808 535.545 926.868 533.364 933.414 533.364C940.02 533.364 945.08 535.545 948.596 539.909C952.171 544.273 953.959 550.333 953.959 558.091V583.545C953.959 591.182 952.171 597.152 948.596 601.455C945.08 605.758 940.02 607.909 933.414 607.909ZM933.414 597.364C935.959 597.364 937.686 596.333 938.596 594.273C939.565 592.212 940.05 588.364 940.05 582.727V558.909C940.05 553.091 939.565 549.152 938.596 547.091C937.686 544.97 935.959 543.909 933.414 543.909C930.868 543.909 929.111 544.97 928.141 547.091C927.232 549.152 926.777 553.091 926.777 558.909V582.727C926.777 588.364 927.232 592.212 928.141 594.273C929.111 596.333 930.868 597.364 933.414 597.364ZM982.364 586.818L976.091 555.818L977.636 607H965.364V534.273H978.182L986.818 570.545L995.364 534.273H1007.82V607H995.545L997.091 556.545L991 586.818H982.364ZM1019.22 607V534.273H1060.4V544.818H1033.22V562.545H1056.95V573.182H1033.22V596.455H1060.4V607H1019.22ZM1139.3 607V544.818H1123.94V534.273H1168.67V544.818H1153.3V607H1139.3ZM1199.53 607.909C1192.92 607.909 1187.83 605.758 1184.25 601.455C1180.74 597.152 1178.98 591.182 1178.98 583.545V558.091C1178.98 550.333 1180.77 544.273 1184.35 539.909C1187.92 535.545 1192.98 533.364 1199.53 533.364C1206.13 533.364 1211.19 535.545 1214.71 539.909C1218.28 544.273 1220.07 550.333 1220.07 558.091V583.545C1220.07 591.182 1218.28 597.152 1214.71 601.455C1211.19 605.758 1206.13 607.909 1199.53 607.909ZM1199.53 597.364C1202.07 597.364 1203.8 596.333 1204.71 594.273C1205.68 592.212 1206.16 588.364 1206.16 582.727V558.909C1206.16 553.091 1205.68 549.152 1204.71 547.091C1203.8 544.97 1202.07 543.909 1199.53 543.909C1196.98 543.909 1195.22 544.97 1194.25 547.091C1193.35 549.152 1192.89 553.091 1192.89 558.909V582.727C1192.89 588.364 1193.35 592.212 1194.25 594.273C1195.22 596.333 1196.98 597.364 1199.53 597.364ZM481.021 717.909C474.415 717.909 469.324 715.758 465.748 711.455C462.233 707.152 460.476 701.182 460.476 693.545V668.091C460.476 660.333 462.264 654.273 465.839 649.909C469.415 645.545 474.476 643.364 481.021 643.364C487.627 643.364 492.688 645.545 496.203 649.909C499.779 654.273 501.567 660.333 501.567 668.091V693.545C501.567 701.182 499.779 707.152 496.203 711.455C492.688 715.758 487.627 717.909 481.021 717.909ZM481.021 707.364C483.567 707.364 485.294 706.333 486.203 704.273C487.173 702.212 487.657 698.364 487.657 692.727V668.909C487.657 663.091 487.173 659.152 486.203 657.091C485.294 654.97 483.567 653.909 481.021 653.909C478.476 653.909 476.718 654.97 475.748 657.091C474.839 659.152 474.385 663.091 474.385 668.909V692.727C474.385 698.364 474.839 702.212 475.748 704.273C476.718 706.333 478.476 707.364 481.021 707.364ZM534.244 717.909C527.213 717.909 522.001 715.818 518.607 711.636C515.274 707.455 513.607 701.03 513.607 692.364V644.273H527.607V692.545C527.607 698 528.062 701.758 528.971 703.818C529.941 705.879 531.698 706.909 534.244 706.909C536.789 706.909 538.517 705.879 539.426 703.818C540.395 701.758 540.88 698 540.88 692.545V644.273H554.88V692.364C554.88 701.03 553.183 707.455 549.789 711.636C546.456 715.818 541.274 717.909 534.244 717.909ZM580.83 679.545H587.194C589.436 679.545 591.133 678.848 592.285 677.455C593.436 676.061 594.012 673.515 594.012 669.818V664.182C594.012 660.545 593.436 658.091 592.285 656.818C591.133 655.485 589.436 654.818 587.194 654.818H580.83V679.545ZM580.83 717H566.83V644.273H589.466C595.285 644.273 599.679 645.939 602.648 649.273C605.679 652.606 607.194 657.455 607.194 663.818V669.909C607.194 674.818 606.376 678.879 604.739 682.091C603.103 685.242 600.709 687.394 597.557 688.545L609.194 717H594.739L583.739 690H580.83V717ZM698.366 717L685.094 662.909V717H673.275V644.273H688.275L702.639 699.091V644.273H714.548V717H698.366ZM726.498 717V644.273H767.68V654.818H740.498V672.545H764.225V683.182H740.498V706.455H767.68V717H726.498ZM804.812 717L800.448 682.727L796.175 717H783.993L776.993 644.273H788.721L791.266 698.091L795.63 662.455H804.812L809.448 697.091L811.903 644.273H823.63L816.63 717H804.812ZM886.166 717V644.273H900.166V671.727H913.439V644.273H927.439V717H913.439V682.364H900.166V717H886.166ZM953.389 679.545H959.752C961.995 679.545 963.692 678.848 964.843 677.455C965.995 676.061 966.57 673.515 966.57 669.818V664.182C966.57 660.545 965.995 658.091 964.843 656.818C963.692 655.485 961.995 654.818 959.752 654.818H953.389V679.545ZM953.389 717H939.389V644.273H962.025C967.843 644.273 972.237 645.939 975.207 649.273C978.237 652.606 979.752 657.455 979.752 663.818V669.909C979.752 674.818 978.934 678.879 977.298 682.091C975.661 685.242 973.267 687.394 970.116 688.545L981.752 717H967.298L956.298 690H953.389V717ZM1066.47 717.909C1059.44 717.909 1054.23 715.818 1050.83 711.636C1047.5 707.455 1045.83 701.03 1045.83 692.364V644.273H1059.83V692.545C1059.83 698 1060.29 701.758 1061.2 703.818C1062.17 705.879 1063.92 706.909 1066.47 706.909C1069.02 706.909 1070.74 705.879 1071.65 703.818C1072.62 701.758 1073.11 698 1073.11 692.545V644.273H1087.11V692.364C1087.11 701.03 1085.41 707.455 1082.02 711.636C1078.68 715.818 1073.5 717.909 1066.47 717.909ZM1124.15 717L1110.87 662.909V717H1099.06V644.273H1114.06L1128.42 699.091V644.273H1140.33V717H1124.15ZM1152.28 717V706.455H1165.92V654.818H1152.28V644.273H1193.55V654.818H1179.92V706.455H1193.55V717H1152.28ZM1235.41 717H1216.87L1202.87 644.273H1216.59L1226.05 703.364L1236.23 644.273H1249.41L1235.41 717ZM1258.72 717V644.273H1299.91V654.818H1272.72V672.545H1296.45V683.182H1272.72V706.455H1299.91V717H1258.72ZM1325.95 679.545H1332.31C1334.55 679.545 1336.25 678.848 1337.4 677.455C1338.55 676.061 1339.13 673.515 1339.13 669.818V664.182C1339.13 660.545 1338.55 658.091 1337.4 656.818C1336.25 655.485 1334.55 654.818 1332.31 654.818H1325.95V679.545ZM1325.95 717H1311.95V644.273H1334.58C1340.4 644.273 1344.8 645.939 1347.77 649.273C1350.8 652.606 1352.31 657.455 1352.31 663.818V669.909C1352.31 674.818 1351.49 678.879 1349.86 682.091C1348.22 685.242 1345.83 687.394 1342.67 688.545L1354.31 717H1339.86L1328.86 690H1325.95V717ZM1384.35 717.818C1380.9 717.818 1377.44 717.242 1373.99 716.091C1370.59 714.939 1367.5 713.333 1364.72 711.273L1367.08 700.545C1369.87 702.545 1372.69 704.182 1375.53 705.455C1378.44 706.667 1381.53 707.273 1384.81 707.273C1387.65 707.273 1389.75 706.424 1391.08 704.727C1392.47 702.97 1393.17 700.697 1393.17 697.909C1393.17 694.818 1392.35 692.545 1390.72 691.091C1389.14 689.576 1386.17 687.788 1381.81 685.727C1375.93 683.061 1371.75 680.121 1369.26 676.909C1366.84 673.697 1365.62 669.545 1365.62 664.455C1365.62 658.273 1367.41 653.273 1370.99 649.455C1374.56 645.576 1379.59 643.636 1386.08 643.636C1389.41 643.636 1392.62 644.212 1395.72 645.364C1398.81 646.515 1401.53 648.061 1403.9 650L1402.17 660.182C1399.5 658.242 1396.93 656.788 1394.44 655.818C1392.02 654.848 1389.62 654.364 1387.26 654.364C1384.78 654.364 1382.87 655.091 1381.53 656.545C1380.2 658 1379.53 660.152 1379.53 663C1379.53 665.788 1380.35 667.909 1381.99 669.364C1383.62 670.758 1386.59 672.485 1390.9 674.545C1396.78 677.515 1400.93 680.636 1403.35 683.909C1405.84 687.121 1407.08 691.182 1407.08 696.091C1407.08 702.758 1405.05 708.061 1400.99 712C1396.93 715.879 1391.38 717.818 1384.35 717.818ZM1418.39 717V644.273H1459.57V654.818H1432.39V672.545H1456.12V683.182H1432.39V706.455H1459.57V717H1418.39Z" fill="white"/>
</g>
<defs>
<radialGradient id="paint0_radial_30_2" cx="0" cy="0" r="1" gradientUnits="userSpaceOnUse" gradientTransform="translate(1170.3 943.6) scale(7.50003 7.5)">
<stop stop-color="white"/>
<stop offset="0.1" stop-color="white"/>
<stop offset="0.2" stop-color="white" stop-opacity="0.9"/>
<stop offset="0.4" stop-color="white" stop-opacity="0.8"/>
<stop offset="0.5" stop-color="white" stop-opacity="0.7"/>
<stop offset="0.6" stop-color="white" stop-opacity="0.6"/>
<stop offset="0.8" stop-color="white" stop-opacity="0.4"/>
<stop offset="0.9" stop-color="white" stop-opacity="0.2"/>
<stop offset="1" stop-color="white" stop-opacity="0"/>
</radialGradient>
<radialGradient id="paint1_radial_30_2" cx="0" cy="0" r="1" gradientUnits="userSpaceOnUse" gradientTransform="translate(1170.3 943.6) scale(15 15)">
<stop stop-color="white"/>
<stop offset="0.1" stop-color="white"/>
<stop offset="0.2" stop-color="white" stop-opacity="0.9"/>
<stop offset="0.4" stop-color="white" stop-opacity="0.8"/>
<stop offset="0.5" stop-color="white" stop-opacity="0.7"/>
<stop offset="0.6" stop-color="white" stop-opacity="0.6"/>
<stop offset="0.8" stop-color="white" stop-opacity="0.4"/>
<stop offset="0.9" stop-color="white" stop-opacity="0.2"/>
<stop offset="1" stop-color="white" stop-opacity="0"/>
</radialGradient>
<radialGradient id="paint2_radial_30_2" cx="0" cy="0" r="1" gradientUnits="userSpaceOnUse" gradientTransform="translate(1170.3 943.6) scale(10 10)">
<stop stop-color="white"/>
<stop offset="0.1" stop-color="white"/>
<stop offset="0.2" stop-color="white" stop-opacity="0.9"/>
<stop offset="0.4" stop-color="white" stop-opacity="0.8"/>
<stop offset="0.5" stop-color="white" stop-opacity="0.7"/>
<stop offset="0.6" stop-color="white" stop-opacity="0.6"/>
<stop offset="0.8" stop-color="white" stop-opacity="0.4"/>
<stop offset="0.9" stop-color="white" stop-opacity="0.2"/>
<stop offset="1" stop-color="white" stop-opacity="0"/>
</radialGradient>
<radialGradient id="paint3_radial_30_2" cx="0" cy="0" r="1" gradientUnits="userSpaceOnUse" gradientTransform="translate(378.8 345.3) scale(7.5)">
<stop stop-color="white"/>
<stop offset="0.1" stop-color="white"/>
<stop offset="0.2" stop-color="white" stop-opacity="0.9"/>
<stop offset="0.4" stop-color="white" stop-opacity="0.8"/>
<stop offset="0.5" stop-color="white" stop-opacity="0.7"/>
<stop offset="0.6" stop-color="white" stop-opacity="0.6"/>
<stop offset="0.8" stop-color="white" stop-opacity="0.4"/>
<stop offset="0.9" stop-color="white" stop-opacity="0.2"/>
<stop offset="1" stop-color="white" stop-opacity="0"/>
</radialGradient>
<radialGradient id="paint4_radial_30_2" cx="0" cy="0" r="1" gradientUnits="userSpaceOnUse" gradientTransform="translate(378.8 345.3) scale(15)">
<stop stop-color="white"/>
<stop offset="0.1" stop-color="white"/>
<stop offset="0.2" stop-color="white" stop-opacity="0.9"/>
<stop offset="0.4" stop-color="white" stop-opacity="0.8"/>
<stop offset="0.5" stop-color="white" stop-opacity="0.7"/>
<stop offset="0.6" stop-color="white" stop-opacity="0.6"/>
<stop offset="0.8" stop-color="white" stop-opacity="0.4"/>
<stop offset="0.9" stop-color="white" stop-opacity="0.2"/>
<stop offset="1" stop-color="white" stop-opacity="0"/>
</radialGradient>
<radialGradient id="paint5_radial_30_2" cx="0" cy="0" r="1" gradientUnits="userSpaceOnUse" gradientTransform="translate(378.8 345.3) scale(10)">
<stop stop-color="white"/>
<stop offset="0.1" stop-color="white"/>
<stop offset="0.2" stop-color="white" stop-opacity="0.9"/>
<stop offset="0.4" stop-color="white" stop-opacity="0.8"/>
<stop offset="0.5" stop-color="white" stop-opacity="0.7"/>
<stop offset="0.6" stop-color="white" stop-opacity="0.6"/>
<stop offset="0.8" stop-color="white" stop-opacity="0.4"/>
<stop offset="0.9" stop-color="white" stop-opacity="0.2"/>
<stop offset="1" stop-color="white" stop-opacity="0"/>
</radialGradient>
<radialGradient id="paint6_radial_30_2" cx="0" cy="0" r="1" gradientUnits="userSpaceOnUse" gradientTransform="translate(1677 555) scale(0.5)">
<stop stop-color="white"/>
<stop offset="0.1" stop-color="white"/>
<stop offset="0.2" stop-color="white" stop-opacity="0.9"/>
<stop offset="0.4" stop-color="white" stop-opacity="0.8"/>
<stop offset="0.5" stop-color="white" stop-opacity="0.7"/>
<stop offset="0.6" stop-color="white" stop-opacity="0.6"/>
<stop offset="0.8" stop-color="white" stop-opacity="0.4"/>
<stop offset="0.9" stop-color="white" stop-opacity="0.2"/>
<stop offset="1" stop-color="white" stop-opacity="0"/>
</radialGradient>
<radialGradient id="paint7_radial_30_2" cx="0" cy="0" r="1" gradientUnits="userSpaceOnUse" gradientTransform="translate(1677 555) scale(15)">
<stop stop-color="white"/>
<stop offset="0.1" stop-color="white"/>
<stop offset="0.2" stop-color="white" stop-opacity="0.9"/>
<stop offset="0.4" stop-color="white" stop-opacity="0.8"/>
<stop offset="0.5" stop-color="white" stop-opacity="0.7"/>
<stop offset="0.6" stop-color="white" stop-opacity="0.6"/>
<stop offset="0.8" stop-color="white" stop-opacity="0.4"/>
<stop offset="0.9" stop-color="white" stop-opacity="0.2"/>
<stop offset="1" stop-color="white" stop-opacity="0"/>
</radialGradient>
<radialGradient id="paint8_radial_30_2" cx="0" cy="0" r="1" gradientUnits="userSpaceOnUse" gradientTransform="translate(1677 555) scale(10)">
<stop stop-color="white"/>
<stop offset="0.1" stop-color="white"/>
<stop offset="0.2" stop-color="white" stop-opacity="0.9"/>
<stop offset="0.4" stop-color="white" stop-opacity="0.8"/>
<stop offset="0.5" stop-color="white" stop-opacity="0.7"/>
<stop offset="0.6" stop-color="white" stop-opacity="0.6"/>
<stop offset="0.8" stop-color="white" stop-opacity="0.4"/>
<stop offset="0.9" stop-color="white" stop-opacity="0.2"/>
<stop offset="1" stop-color="white" stop-opacity="0"/>
</radialGradient>
<radialGradient id="paint9_radial_30_2" cx="0" cy="0" r="1" gradientUnits="userSpaceOnUse" gradientTransform="translate(1774.1 333.6) scale(7.5)">
<stop stop-color="white"/>
<stop offset="0.1" stop-color="white"/>
<stop offset="0.2" stop-color="white" stop-opacity="0.9"/>
<stop offset="0.4" stop-color="white" stop-opacity="0.8"/>
<stop offset="0.5" stop-color="white" stop-opacity="0.7"/>
<stop offset="0.6" stop-color="white" stop-opacity="0.6"/>
<stop offset="0.8" stop-color="white" stop-opacity="0.4"/>
<stop offset="0.9" stop-color="white" stop-opacity="0.2"/>
<stop offset="1" stop-color="white" stop-opacity="0"/>
</radialGradient>
<radialGradient id="paint10_radial_30_2" cx="0" cy="0" r="1" gradientUnits="userSpaceOnUse" gradientTransform="translate(1774.1 333.6) scale(15)">
<stop stop-color="white"/>
<stop offset="0.1" stop-color="white"/>
<stop offset="0.2" stop-color="white" stop-opacity="0.9"/>
<stop offset="0.4" stop-color="white" stop-opacity="0.8"/>
<stop offset="0.5" stop-color="white" stop-opacity="0.7"/>
<stop offset="0.6" stop-color="white" stop-opacity="0.6"/>
<stop offset="0.8" stop-color="white" stop-opacity="0.4"/>
<stop offset="0.9" stop-color="white" stop-opacity="0.2"/>
<stop offset="1" stop-color="white" stop-opacity="0"/>
</radialGradient>
<radialGradient id="paint11_radial_30_2" cx="0" cy="0" r="1" gradientUnits="userSpaceOnUse" gradientTransform="translate(1774.1 333.6) scale(10)">
<stop stop-color="white"/>
<stop offset="0.1" stop-color="white"/>
<stop offset="0.2" stop-color="white" stop-opacity="0.9"/>
<stop offset="0.4" stop-color="white" stop-opacity="0.8"/>
<stop offset="0.5" stop-color="white" stop-opacity="0.7"/>
<stop offset="0.6" stop-color="white" stop-opacity="0.6"/>
<stop offset="0.8" stop-color="white" stop-opacity="0.4"/>
<stop offset="0.9" stop-color="white" stop-opacity="0.2"/>
<stop offset="1" stop-color="white" stop-opacity="0"/>
</radialGradient>
<radialGradient id="paint12_radial_30_2" cx="0" cy="0" r="1" gradientUnits="userSpaceOnUse" gradientTransform="translate(1257.3 82.7001) scale(7.5)">
<stop stop-color="white"/>
<stop offset="0.1" stop-color="white"/>
<stop offset="0.2" stop-color="white" stop-opacity="0.9"/>
<stop offset="0.4" stop-color="white" stop-opacity="0.8"/>
<stop offset="0.5" stop-color="white" stop-opacity="0.7"/>
<stop offset="0.6" stop-color="white" stop-opacity="0.6"/>
<stop offset="0.8" stop-color="white" stop-opacity="0.4"/>
<stop offset="0.9" stop-color="white" stop-opacity="0.2"/>
<stop offset="1" stop-color="white" stop-opacity="0"/>
</radialGradient>
<radialGradient id="paint13_radial_30_2" cx="0" cy="0" r="1" gradientUnits="userSpaceOnUse" gradientTransform="translate(1257.3 82.7001) scale(15)">
<stop stop-color="white"/>
<stop offset="0.1" stop-color="white"/>
<stop offset="0.2" stop-color="white" stop-opacity="0.9"/>
<stop offset="0.4" stop-color="white" stop-opacity="0.8"/>
<stop offset="0.5" stop-color="white" stop-opacity="0.7"/>
<stop offset="0.6" stop-color="white" stop-opacity="0.6"/>
<stop offset="0.8" stop-color="white" stop-opacity="0.4"/>
<stop offset="0.9" stop-color="white" stop-opacity="0.2"/>
<stop offset="1" stop-color="white" stop-opacity="0"/>
</radialGradient>
<radialGradient id="paint14_radial_30_2" cx="0" cy="0" r="1" gradientUnits="userSpaceOnUse" gradientTransform="translate(1257.3 82.7001) scale(10)">
<stop stop-color="white"/>
<stop offset="0.1" stop-color="white"/>
<stop offset="0.2" stop-color="white" stop-opacity="0.9"/>
<stop offset="0.4" stop-color="white" stop-opacity="0.8"/>
<stop offset="0.5" stop-color="white" stop-opacity="0.7"/>
<stop offset="0.6" stop-color="white" stop-opacity="0.6"/>
<stop offset="0.8" stop-color="white" stop-opacity="0.4"/>
<stop offset="0.9" stop-color="white" stop-opacity="0.2"/>
<stop offset="1" stop-color="white" stop-opacity="0"/>
</radialGradient>
<radialGradient id="paint15_radial_30_2" cx="0" cy="0" r="1" gradientUnits="userSpaceOnUse" gradientTransform="translate(681.4 887.1) scale(10)">
<stop stop-color="white"/>
<stop offset="0.1" stop-color="white"/>
<stop offset="0.2" stop-color="white" stop-opacity="0.9"/>
<stop offset="0.4" stop-color="white" stop-opacity="0.8"/>
<stop offset="0.5" stop-color="white" stop-opacity="0.7"/>
<stop offset="0.6" stop-color="white" stop-opacity="0.6"/>
<stop offset="0.8" stop-color="white" stop-opacity="0.4"/>
<stop offset="0.9" stop-color="white" stop-opacity="0.2"/>
<stop offset="1" stop-color="white" stop-opacity="0"/>
</radialGradient>
<radialGradient id="paint16_radial_30_2" cx="0" cy="0" r="1" gradientUnits="userSpaceOnUse" gradientTransform="translate(681.4 887.1) scale(6.60001)">
<stop stop-color="white"/>
<stop offset="0.1" stop-color="white"/>
<stop offset="0.2" stop-color="white" stop-opacity="0.9"/>
<stop offset="0.4" stop-color="white" stop-opacity="0.8"/>
<stop offset="0.5" stop-color="white" stop-opacity="0.7"/>
<stop offset="0.6" stop-color="white" stop-opacity="0.6"/>
<stop offset="0.8" stop-color="white" stop-opacity="0.4"/>
<stop offset="0.9" stop-color="white" stop-opacity="0.2"/>
<stop offset="1" stop-color="white" stop-opacity="0"/>
</radialGradient>
<radialGradient id="paint17_radial_30_2" cx="0" cy="0" r="1" gradientUnits="userSpaceOnUse" gradientTransform="translate(681.4 887.1) scale(5)">
<stop stop-color="white"/>
<stop offset="0.1" stop-color="white"/>
<stop offset="0.2" stop-color="white" stop-opacity="0.9"/>
<stop offset="0.4" stop-color="white" stop-opacity="0.8"/>
<stop offset="0.5" stop-color="white" stop-opacity="0.7"/>
<stop offset="0.6" stop-color="white" stop-opacity="0.6"/>
<stop offset="0.8" stop-color="white" stop-opacity="0.4"/>
<stop offset="0.9" stop-color="white" stop-opacity="0.2"/>
<stop offset="1" stop-color="white" stop-opacity="0"/>
</radialGradient>
<radialGradient id="paint18_radial_30_2" cx="0" cy="0" r="1" gradientUnits="userSpaceOnUse" gradientTransform="translate(174.5 810.4) scale(10)">
<stop stop-color="white"/>
<stop offset="0.1" stop-color="white"/>
<stop offset="0.2" stop-color="white" stop-opacity="0.9"/>
<stop offset="0.4" stop-color="white" stop-opacity="0.8"/>
<stop offset="0.5" stop-color="white" stop-opacity="0.7"/>
<stop offset="0.6" stop-color="white" stop-opacity="0.6"/>
<stop offset="0.8" stop-color="white" stop-opacity="0.4"/>
<stop offset="0.9" stop-color="white" stop-opacity="0.2"/>
<stop offset="1" stop-color="white" stop-opacity="0"/>
</radialGradient>
<radialGradient id="paint19_radial_30_2" cx="0" cy="0" r="1" gradientUnits="userSpaceOnUse" gradientTransform="translate(174.5 810.4) scale(6.6 6.60001)">
<stop stop-color="white"/>
<stop offset="0.1" stop-color="white"/>
<stop offset="0.2" stop-color="white" stop-opacity="0.9"/>
<stop offset="0.4" stop-color="white" stop-opacity="0.8"/>
<stop offset="0.5" stop-color="white" stop-opacity="0.7"/>
<stop offset="0.6" stop-color="white" stop-opacity="0.6"/>
<stop offset="0.8" stop-color="white" stop-opacity="0.4"/>
<stop offset="0.9" stop-color="white" stop-opacity="0.2"/>
<stop offset="1" stop-color="white" stop-opacity="0"/>
</radialGradient>
<radialGradient id="paint20_radial_30_2" cx="0" cy="0" r="1" gradientUnits="userSpaceOnUse" gradientTransform="translate(174.5 810.4) scale(5)">
<stop stop-color="white"/>
<stop offset="0.1" stop-color="white"/>
<stop offset="0.2" stop-color="white" stop-opacity="0.9"/>
<stop offset="0.4" stop-color="white" stop-opacity="0.8"/>
<stop offset="0.5" stop-color="white" stop-opacity="0.7"/>
<stop offset="0.6" stop-color="white" stop-opacity="0.6"/>
<stop offset="0.8" stop-color="white" stop-opacity="0.4"/>
<stop offset="0.9" stop-color="white" stop-opacity="0.2"/>
<stop offset="1" stop-color="white" stop-opacity="0"/>
</radialGradient>
<radialGradient id="paint21_radial_30_2" cx="0" cy="0" r="1" gradientUnits="userSpaceOnUse" gradientTransform="translate(240.5 407.1) scale(10)">
<stop stop-color="white"/>
<stop offset="0.1" stop-color="white"/>
<stop offset="0.2" stop-color="white" stop-opacity="0.9"/>
<stop offset="0.4" stop-color="white" stop-opacity="0.8"/>
<stop offset="0.5" stop-color="white" stop-opacity="0.7"/>
<stop offset="0.6" stop-color="white" stop-opacity="0.6"/>
<stop offset="0.8" stop-color="white" stop-opacity="0.4"/>
<stop offset="0.9" stop-color="white" stop-opacity="0.2"/>
<stop offset="1" stop-color="white" stop-opacity="0"/>
</radialGradient>
<radialGradient id="paint22_radial_30_2" cx="0" cy="0" r="1" gradientUnits="userSpaceOnUse" gradientTransform="translate(240.5 407.1) scale(6.60001)">
<stop stop-color="white"/>
<stop offset="0.1" stop-color="white"/>
<stop offset="0.2" stop-color="white" stop-opacity="0.9"/>
<stop offset="0.4" stop-color="white" stop-opacity="0.8"/>
<stop offset="0.5" stop-color="white" stop-opacity="0.7"/>
<stop offset="0.6" stop-color="white" stop-opacity="0.6"/>
<stop offset="0.8" stop-color="white" stop-opacity="0.4"/>
<stop offset="0.9" stop-color="white" stop-opacity="0.2"/>
<stop offset="1" stop-color="white" stop-opacity="0"/>
</radialGradient>
<radialGradient id="paint23_radial_30_2" cx="0" cy="0" r="1" gradientUnits="userSpaceOnUse" gradientTransform="translate(240.5 407.1) scale(5)">
<stop stop-color="white"/>
<stop offset="0.1" stop-color="white"/>
<stop offset="0.2" stop-color="white" stop-opacity="0.9"/>
<stop offset="0.4" stop-color="white" stop-opacity="0.8"/>
<stop offset="0.5" stop-color="white" stop-opacity="0.7"/>
<stop offset="0.6" stop-color="white" stop-opacity="0.6"/>
<stop offset="0.8" stop-color="white" stop-opacity="0.4"/>
<stop offset="0.9" stop-color="white" stop-opacity="0.2"/>
<stop offset="1" stop-color="white" stop-opacity="0"/>
</radialGradient>
<radialGradient id="paint24_radial_30_2" cx="0" cy="0" r="1" gradientUnits="userSpaceOnUse" gradientTransform="translate(596.7 280.7) scale(17.7 17.7)">
<stop stop-color="white"/>
<stop offset="0.1" stop-color="white"/>
<stop offset="0.2" stop-color="white" stop-opacity="0.9"/>
<stop offset="0.4" stop-color="white" stop-opacity="0.8"/>
<stop offset="0.5" stop-color="white" stop-opacity="0.7"/>
<stop offset="0.6" stop-color="white" stop-opacity="0.6"/>
<stop offset="0.8" stop-color="white" stop-opacity="0.4"/>
<stop offset="0.9" stop-color="white" stop-opacity="0.2"/>
<stop offset="1" stop-color="white" stop-opacity="0"/>
</radialGradient>
<radialGradient id="paint25_radial_30_2" cx="0" cy="0" r="1" gradientUnits="userSpaceOnUse" gradientTransform="translate(596.7 280.7) scale(11.8 11.8)">
<stop stop-color="white"/>
<stop offset="0.1" stop-color="white"/>
<stop offset="0.2" stop-color="white" stop-opacity="0.9"/>
<stop offset="0.4" stop-color="white" stop-opacity="0.8"/>
<stop offset="0.5" stop-color="white" stop-opacity="0.7"/>
<stop offset="0.6" stop-color="white" stop-opacity="0.6"/>
<stop offset="0.8" stop-color="white" stop-opacity="0.4"/>
<stop offset="0.9" stop-color="white" stop-opacity="0.2"/>
<stop offset="1" stop-color="white" stop-opacity="0"/>
</radialGradient>
<radialGradient id="paint26_radial_30_2" cx="0" cy="0" r="1" gradientUnits="userSpaceOnUse" gradientTransform="translate(596.7 280.7) scale(8.79999 8.8)">
<stop stop-color="white"/>
<stop offset="0.1" stop-color="white"/>
<stop offset="0.2" stop-color="white" stop-opacity="0.9"/>
<stop offset="0.4" stop-color="white" stop-opacity="0.8"/>
<stop offset="0.5" stop-color="white" stop-opacity="0.7"/>
<stop offset="0.6" stop-color="white" stop-opacity="0.6"/>
<stop offset="0.8" stop-color="white" stop-opacity="0.4"/>
<stop offset="0.9" stop-color="white" stop-opacity="0.2"/>
<stop offset="1" stop-color="white" stop-opacity="0"/>
</radialGradient>
<radialGradient id="paint27_radial_30_2" cx="0" cy="0" r="1" gradientUnits="userSpaceOnUse" gradientTransform="translate(1414.2 188.7) scale(17.7 17.7)">
<stop stop-color="white"/>
<stop offset="0.1" stop-color="white"/>
<stop offset="0.2" stop-color="white" stop-opacity="0.9"/>
<stop offset="0.4" stop-color="white" stop-opacity="0.8"/>
<stop offset="0.5" stop-color="white" stop-opacity="0.7"/>
<stop offset="0.6" stop-color="white" stop-opacity="0.6"/>
<stop offset="0.8" stop-color="white" stop-opacity="0.4"/>
<stop offset="0.9" stop-color="white" stop-opacity="0.2"/>
<stop offset="1" stop-color="white" stop-opacity="0"/>
</radialGradient>
<radialGradient id="paint28_radial_30_2" cx="0" cy="0" r="1" gradientUnits="userSpaceOnUse" gradientTransform="translate(1414.2 188.7) scale(11.8 11.8)">
<stop stop-color="white"/>
<stop offset="0.1" stop-color="white"/>
<stop offset="0.2" stop-color="white" stop-opacity="0.9"/>
<stop offset="0.4" stop-color="white" stop-opacity="0.8"/>
<stop offset="0.5" stop-color="white" stop-opacity="0.7"/>
<stop offset="0.6" stop-color="white" stop-opacity="0.6"/>
<stop offset="0.8" stop-color="white" stop-opacity="0.4"/>
<stop offset="0.9" stop-color="white" stop-opacity="0.2"/>
<stop offset="1" stop-color="white" stop-opacity="0"/>
</radialGradient>
<radialGradient id="paint29_radial_30_2" cx="0" cy="0" r="1" gradientUnits="userSpaceOnUse" gradientTransform="translate(1414.2 188.7) scale(8.79999 8.8)">
<stop stop-color="white"/>
<stop offset="0.1" stop-color="white"/>
<stop offset="0.2" stop-color="white" stop-opacity="0.9"/>
<stop offset="0.4" stop-color="white" stop-opacity="0.8"/>
<stop offset="0.5" stop-color="white" stop-opacity="0.7"/>
<stop offset="0.6" stop-color="white" stop-opacity="0.6"/>
<stop offset="0.8" stop-color="white" stop-opacity="0.4"/>
<stop offset="0.9" stop-color="white" stop-opacity="0.2"/>
<stop offset="1" stop-color="white" stop-opacity="0"/>
</radialGradient>
<radialGradient id="paint30_radial_30_2" cx="0" cy="0" r="1" gradientUnits="userSpaceOnUse" gradientTransform="translate(1579 957.4) scale(17.7 17.7)">
<stop stop-color="white"/>
<stop offset="0.1" stop-color="white"/>
<stop offset="0.2" stop-color="white" stop-opacity="0.9"/>
<stop offset="0.4" stop-color="white" stop-opacity="0.8"/>
<stop offset="0.5" stop-color="white" stop-opacity="0.7"/>
<stop offset="0.6" stop-color="white" stop-opacity="0.6"/>
<stop offset="0.8" stop-color="white" stop-opacity="0.4"/>
<stop offset="0.9" stop-color="white" stop-opacity="0.2"/>
<stop offset="1" stop-color="white" stop-opacity="0"/>
</radialGradient>
<radialGradient id="paint31_radial_30_2" cx="0" cy="0" r="1" gradientUnits="userSpaceOnUse" gradientTransform="translate(1579 957.4) scale(11.8 11.8)">
<stop stop-color="white"/>
<stop offset="0.1" stop-color="white"/>
<stop offset="0.2" stop-color="white" stop-opacity="0.9"/>
<stop offset="0.4" stop-color="white" stop-opacity="0.8"/>
<stop offset="0.5" stop-color="white" stop-opacity="0.7"/>
<stop offset="0.6" stop-color="white" stop-opacity="0.6"/>
<stop offset="0.8" stop-color="white" stop-opacity="0.4"/>
<stop offset="0.9" stop-color="white" stop-opacity="0.2"/>
<stop offset="1" stop-color="white" stop-opacity="0"/>
</radialGradient>
<radialGradient id="paint32_radial_30_2" cx="0" cy="0" r="1" gradientUnits="userSpaceOnUse" gradientTransform="translate(1579 957.4) scale(8.80005 8.80002)">
<stop stop-color="white"/>
<stop offset="0.1" stop-color="white"/>
<stop offset="0.2" stop-color="white" stop-opacity="0.9"/>
<stop offset="0.4" stop-color="white" stop-opacity="0.8"/>
<stop offset="0.5" stop-color="white" stop-opacity="0.7"/>
<stop offset="0.6" stop-color="white" stop-opacity="0.6"/>
<stop offset="0.8" stop-color="white" stop-opacity="0.4"/>
<stop offset="0.9" stop-color="white" stop-opacity="0.2"/>
<stop offset="1" stop-color="white" stop-opacity="0"/>
</radialGradient>
<radialGradient id="paint33_radial_30_2" cx="0" cy="0" r="1" gradientUnits="userSpaceOnUse" gradientTransform="translate(119.1 330.2) scale(10)">
<stop stop-color="white"/>
<stop offset="0.1" stop-color="white"/>
<stop offset="0.2" stop-color="white" stop-opacity="0.9"/>
<stop offset="0.4" stop-color="white" stop-opacity="0.8"/>
<stop offset="0.5" stop-color="white" stop-opacity="0.7"/>
<stop offset="0.6" stop-color="white" stop-opacity="0.6"/>
<stop offset="0.8" stop-color="white" stop-opacity="0.4"/>
<stop offset="0.9" stop-color="white" stop-opacity="0.2"/>
<stop offset="1" stop-color="white" stop-opacity="0"/>
</radialGradient>
<radialGradient id="paint34_radial_30_2" cx="0" cy="0" r="1" gradientUnits="userSpaceOnUse" gradientTransform="translate(119.1 330.2) scale(6.6 6.59999)">
<stop stop-color="white"/>
<stop offset="0.1" stop-color="white"/>
<stop offset="0.2" stop-color="white" stop-opacity="0.9"/>
<stop offset="0.4" stop-color="white" stop-opacity="0.8"/>
<stop offset="0.5" stop-color="white" stop-opacity="0.7"/>
<stop offset="0.6" stop-color="white" stop-opacity="0.6"/>
<stop offset="0.8" stop-color="white" stop-opacity="0.4"/>
<stop offset="0.9" stop-color="white" stop-opacity="0.2"/>
<stop offset="1" stop-color="white" stop-opacity="0"/>
</radialGradient>
<radialGradient id="paint35_radial_30_2" cx="0" cy="0" r="1" gradientUnits="userSpaceOnUse" gradientTransform="translate(119.1 330.2) scale(5)">
<stop stop-color="white"/>
<stop offset="0.1" stop-color="white"/>
<stop offset="0.2" stop-color="white" stop-opacity="0.9"/>
<stop offset="0.4" stop-color="white" stop-opacity="0.8"/>
<stop offset="0.5" stop-color="white" stop-opacity="0.7"/>
<stop offset="0.6" stop-color="white" stop-opacity="0.6"/>
<stop offset="0.8" stop-color="white" stop-opacity="0.4"/>
<stop offset="0.9" stop-color="white" stop-opacity="0.2"/>
<stop offset="1" stop-color="white" stop-opacity="0"/>
</radialGradient>
<linearGradient id="paint36_linear_30_2" x1="645.686" y1="629" x2="1265.69" y2="629" gradientUnits="userSpaceOnUse">
<stop stop-color="#9A2794"/>
<stop offset="1" stop-color="#DE5DAC"/>
</linearGradient>
<linearGradient id="paint37_linear_30_2" x1="894.8" y1="715.379" x2="1050.73" y2="715.379" gradientUnits="userSpaceOnUse">
<stop stop-color="#FF8CBB"/>
<stop offset="1" stop-color="#FF8CBB" stop-opacity="0"/>
</linearGradient>
<linearGradient id="paint38_linear_30_2" x1="811.39" y1="416.393" x2="1270.26" y2="416.393" gradientUnits="userSpaceOnUse">
<stop stop-color="#FF8CBB"/>
<stop offset="1" stop-color="#FF8CBB" stop-opacity="0"/>
</linearGradient>
<linearGradient id="paint39_linear_30_2" x1="953.83" y1="550.912" x2="1040.7" y2="550.912" gradientUnits="userSpaceOnUse">
<stop stop-color="#FF8CBB"/>
<stop offset="1" stop-color="#FF8CBB" stop-opacity="0"/>
</linearGradient>
<linearGradient id="paint40_linear_30_2" x1="635.538" y1="735.303" x2="1292.05" y2="735.303" gradientUnits="userSpaceOnUse">
<stop stop-color="#FF8CBB"/>
<stop offset="1" stop-color="#FF8CBB" stop-opacity="0"/>
</linearGradient>
<linearGradient id="paint41_linear_30_2" x1="830.325" y1="702.386" x2="874.999" y2="702.386" gradientUnits="userSpaceOnUse">
<stop stop-color="#FF8CBB"/>
<stop offset="1" stop-color="#FF8CBB" stop-opacity="0"/>
</linearGradient>
<linearGradient id="paint42_linear_30_2" x1="0" y1="772" x2="1920" y2="772" gradientUnits="userSpaceOnUse">
<stop stop-color="#301948" stop-opacity="0"/>
<stop offset="0.375" stop-color="#301948"/>
<stop offset="0.5" stop-color="#301948"/>
<stop offset="0.619792" stop-color="#301948"/>
<stop offset="1" stop-color="#301948" stop-opacity="0"/>
</linearGradient>
<clipPath id="clip0_30_2">
<rect width="1920" height="1080" fill="white"/>
</clipPath>
<clipPath id="clip1_30_2">
<rect width="273" height="135" fill="white" transform="translate(954 143)"/>
</clipPath>
</defs>
</svg>
